PathFileType	4	(x/y/z)	S08_P20_T19
DataRate	CameraRate	NumFrames	NumMarkers	Units	OrigDataRate	OrigDataStartFrame	OrigNumFrames
240	240	11	51	mm	240	1	394
Frame#	Time	Sternum			R.Acromium			L.Acromium			Top.Head			R.ASIS			L.ASIS			R.PSIS			L.PSIS			R.Great.Tro			L.Great.Tro			R.Iliac.Crest			L.Iliac.Crest			V.Sacral			R.Thigh.Upper.Post			R.Thigh.Lower.Ant			R.Thigh.Lower.Post			R.Thigh.Upper.Ant			R.Knee.Lat			R.Knee.Med			R.Shank.Upper.Post			R.Shank.Lower.Ant			R.Shank.Lower.Post			R.Shank.Upper.Ant			R.Ankle.Lat			R.Ankle.Med			R.Heel.Upper			R.Heel.Med			R.Heel.Lat			R.Toe.Lat			R.Toe.Med			R.Toe.Tip			L.Thigh.Upper.Post			L.Thigh.Lower.Ant			L.Thigh.Lower.Post			L.Thigh.Upper.Ant			L.Knee.Lat			L.Knee.Med			L.Shank.Upper.Post			L.Shank.Lower.Ant			L.Shank.Lower.Post			L.Shank.Upper.Ant			L.Ankle.Lat			L.Ankle.Med			L.Heel.Upper			L.Heel.Med			L.Heel.Lat			L.Toe.Lat			L.Toe.Med			L.Toe.Tip			Cervical.Spine			Back			
		X1	Y1	Z1	X2	Y2	Z2	X3	Y3	Z3	X4	Y4	Z4	X5	Y5	Z5	X6	Y6	Z6	X7	Y7	Z7	X8	Y8	Z8	X9	Y9	Z9	X10	Y10	Z10	X11	Y11	Z11	X12	Y12	Z12	X13	Y13	Z13	X14	Y14	Z14	X15	Y15	Z15	X16	Y16	Z16	X17	Y17	Z17	X18	Y18	Z18	X19	Y19	Z19	X20	Y20	Z20	X21	Y21	Z21	X22	Y22	Z22	X23	Y23	Z23	X24	Y24	Z24	X25	Y25	Z25	X26	Y26	Z26	X27	Y27	Z27	X28	Y28	Z28	X29	Y29	Z29	X30	Y30	Z30	X31	Y31	Z31	X32	Y32	Z32	X33	Y33	Z33	X34	Y34	Z34	X35	Y35	Z35	X36	Y36	Z36	X37	Y37	Z37	X38	Y38	Z38	X39	Y39	Z39	X40	Y40	Z40	X41	Y41	Z41	X42	Y42	Z42	X43	Y43	Z43	X44	Y44	Z44	X45	Y45	Z45	X46	Y46	Z46	X47	Y47	Z47	X48	Y48	Z48	X49	Y49	Z49	X50	Y50	Z50	X51	Y51	Z51	

1	0	NaN	NaN	NaN	-1439.7	1461.7	496.87	-1482.3	1487.6	163.54	-1437.2	1781.1	347.73	NaN	NaN	NaN	NaN	NaN	NaN	NaN	NaN	NaN	NaN	NaN	NaN	-1462.9	910.54	501.39	-1456.8	904.8	130.28	-1473.6	1084.2	475.96	-1475	1093.4	165.72	-1594	996.04	308.22	-1532.8	721.96	480.13	-1468.3	609.96	444.57	NaN	NaN	NaN	-1426.4	707.58	451.04	-1542.8	522.13	438.68	-1560.4	532.09	310.86	-1667.5	366.58	439.64	NaN	NaN	NaN	-1683.5	290.97	429.51	NaN	NaN	NaN	-1734.8	131.6	387.71	-1708.9	140.45	310.53	-1791.2	100.89	343.8	-1782	70.79	316.65	-1788.7	75.797	377.79	-1615.8	38.64	422.82	-1596.4	50.764	303.19	-1531.2	55.166	350.31	-1390.3	694.93	149.73	-1272.5	648.79	168.02	-1341.1	621.74	167.61	-1324.7	718.95	145.57	-1285.7	543.49	185.76	-1277.3	542.39	310.11	-1299.4	357.53	184.14	-1218.5	285.14	201.43	-1288.8	284.82	200.79	-1234.7	358.15	187.23	-1228.4	116.25	212.44	-1203	133.14	301.27	-1272.4	76.326	263.51	-1250.5	51.691	298.47	-1258.7	51.893	233.8	-1086.7	76.941	195.97	-1066.1	96.654	305.95	-1009.2	123.04	254.89	-1532.4	1522.3	333.79	-1582.4	1240	341.92
2	0.0041667	NaN	NaN	NaN	-1434.9	1461.1	496.46	-1477.5	1486.9	163.06	-1432.6	1780.5	347.42	NaN	NaN	NaN	NaN	NaN	NaN	NaN	NaN	NaN	NaN	NaN	NaN	-1457.7	909.93	501.2	-1451.7	904.15	130.18	-1468.4	1083.6	475.69	-1469.9	1092.7	165.45	-1588.8	995.33	307.99	-1527.4	721.27	479.81	-1462.9	609.28	444.37	NaN	NaN	NaN	-1421.6	706.78	451.29	-1537.3	521.48	438.58	-1554.8	531.52	310.82	-1663.5	367.2	439.73	NaN	NaN	NaN	-1680.3	291.86	429.68	NaN	NaN	NaN	-1734.1	133.18	388	-1707.5	141.7	310.93	-1790.4	102.91	344.16	-1781.4	72.9	316.9	-1788.1	77.706	378.04	-1615.7	38.512	422.86	-1596.3	50.859	303.3	-1531	54.967	350.27	-1385.7	694.26	149.97	-1268.1	647.74	168.26	-1336.8	620.93	167.91	-1320.1	718.09	145.81	-1281.6	542.27	185.94	-1273	541.61	310.54	-1295.8	356.18	184.53	-1214.7	283.81	202.15	-1285.2	283.55	201.2	-1230.8	356.88	187.74	-1225.2	115.13	213.03	-1199.8	131.74	301.94	-1269.1	75.202	264.13	-1247.3	50.371	298.86	-1255.4	50.831	234.32	-1083.4	75.925	196.86	-1063	95.272	306.92	-1006	122.01	255.98	-1527.5	1521.7	333.33	-1577.4	1239.4	341.56
3	0.0083333	NaN	NaN	NaN	-1429.9	1460.4	496.02	-1472.5	1486.3	162.56	-1427.9	1779.9	347.11	NaN	NaN	NaN	NaN	NaN	NaN	NaN	NaN	NaN	NaN	NaN	NaN	-1452.3	909.3	501	-1446.2	903.48	130.07	-1462.9	1083	475.41	-1464.6	1092	165.18	-1583.4	994.61	307.74	-1521.7	720.54	479.47	-1457.1	608.55	444.17	NaN	NaN	NaN	-1416.5	705.96	451.51	-1531.4	520.81	438.5	-1549	530.9	310.8	-1659.3	367.86	439.84	-1611.2	287.81	415.22	-1676.8	292.8	429.87	NaN	NaN	NaN	-1733.3	134.86	388.34	-1705.9	143.03	311.38	-1789.5	105.1	344.55	-1780.7	75.194	317.18	-1787.5	79.784	378.3	-1615.6	38.385	422.9	-1596.2	50.964	303.42	-1530.9	54.759	350.24	-1381	693.57	150.22	-1263.5	646.64	168.51	-1332.2	620.07	168.21	-1315.3	717.2	146.05	-1277.4	541	186.14	-1268.6	540.78	310.97	-1292.1	354.8	184.93	-1210.9	282.41	202.91	-1281.5	282.24	201.62	-1226.9	355.55	188.27	-1222.1	113.96	213.65	-1196.7	130.27	302.64	-1265.8	74.111	264.78	-1244.1	49.053	299.26	-1252.1	49.799	234.85	-1080.1	74.814	197.78	-1059.8	93.762	307.94	-1002.9	120.83	257.12	-1522.5	1521.1	332.85	-1572.2	1238.7	341.18
4	0.0125	NaN	NaN	NaN	-1424.8	1459.8	495.56	-1467.3	1485.6	162.03	-1422.9	1779.3	346.78	NaN	NaN	NaN	NaN	NaN	NaN	NaN	NaN	NaN	NaN	NaN	NaN	-1446.7	908.65	500.79	-1440.6	902.79	129.96	-1457.3	1082.3	475.13	-1459.1	1091.3	164.88	-1577.7	993.87	307.49	-1515.7	719.77	479.11	-1451	607.79	443.97	NaN	NaN	NaN	-1411.1	705.13	451.69	-1525.3	520.1	438.44	-1542.7	530.21	310.8	-1654.9	368.54	439.97	-1607.6	288.11	415.43	-1673.2	293.79	430.08	NaN	NaN	NaN	-1732.3	136.64	388.73	-1704.3	144.44	311.87	-1788.5	107.46	344.96	-1779.9	77.68	317.46	-1786.8	82.043	378.57	-1615.5	38.262	422.94	-1596.1	51.081	303.55	-1530.8	54.542	350.21	-1376.1	692.85	150.47	-1258.8	645.49	168.75	-1327.5	619.19	168.52	-1310.2	716.28	146.28	-1273.1	539.69	186.34	-1264.1	539.9	311.4	-1288.3	353.39	185.35	-1207.1	280.96	203.69	-1277.8	280.9	202.05	-1222.8	354.16	188.83	-1218.9	112.76	214.27	-1193.5	128.76	303.35	-1262.5	73.076	265.45	-1241	47.757	299.66	-1248.9	48.815	235.38	-1076.9	73.604	198.73	-1056.8	92.124	308.98	-999.72	119.48	258.32	-1517.3	1520.5	332.33	-1566.8	1238	340.77
5	0.016667	NaN	NaN	NaN	-1419.6	1459.2	495.08	-1462	1484.9	161.47	-1417.9	1778.8	346.43	NaN	NaN	NaN	NaN	NaN	NaN	NaN	NaN	NaN	NaN	NaN	NaN	-1440.9	907.99	500.55	-1434.8	902.09	129.84	-1451.5	1081.7	474.85	-1453.4	1090.6	164.58	-1571.9	993.14	307.22	-1509.5	718.95	478.72	-1444.6	606.99	443.8	NaN	NaN	NaN	-1405.3	704.3	451.83	-1518.9	519.35	438.43	-1536.2	529.47	310.83	-1650.1	369.26	440.13	-1603.8	288.42	415.67	-1669.2	294.85	430.32	NaN	NaN	NaN	-1731.2	138.52	389.17	-1702.4	145.94	312.41	-1787.3	110.02	345.39	-1779	80.369	317.76	-1786	84.493	378.86	-1615.5	38.149	422.98	-1595.9	51.213	303.69	-1530.7	54.316	350.19	-1371	692.12	150.71	-1254	644.29	169	-1322.8	618.28	168.83	-1305.1	715.33	146.48	-1268.7	538.35	186.54	-1259.5	538.98	311.82	-1284.5	351.95	185.77	-1203.2	279.48	204.49	-1274.2	279.53	202.47	-1218.8	352.72	189.4	-1215.8	111.54	214.89	-1190.5	127.21	304.08	-1259.4	72.118	266.12	-1238.1	46.502	300.07	-1245.8	47.898	235.9	-1073.8	72.295	199.7	-1053.9	90.359	310.04	-996.66	117.97	259.55	-1512	1519.9	331.79	-1561.2	1237.3	340.33
6	0.020833	NaN	NaN	NaN	-1414.2	1458.6	494.57	-1456.5	1484.2	160.89	-1412.7	1778.2	346.08	NaN	NaN	NaN	NaN	NaN	NaN	NaN	NaN	NaN	NaN	NaN	NaN	-1434.9	907.31	500.3	-1428.9	901.39	129.71	-1445.6	1081	474.56	-1447.6	1089.9	164.26	-1566	992.41	306.95	-1503.1	718.08	478.32	-1438	606.15	443.64	NaN	NaN	NaN	-1399.3	703.47	451.94	-1512.2	518.58	438.45	-1529.4	528.66	310.9	-1645.1	370	440.32	-1599.7	288.73	415.96	-1665.1	295.95	430.58	NaN	NaN	NaN	-1729.8	140.5	389.67	-1700.4	147.51	313	-1785.9	112.78	345.84	-1778	83.274	318.07	-1785.1	87.147	379.17	-1615.4	38.052	423.02	-1595.8	51.364	303.84	-1530.6	54.084	350.17	-1365.9	691.38	150.95	-1249.1	643.05	169.24	-1317.9	617.35	169.13	-1299.7	714.38	146.66	-1264.3	537	186.75	-1254.9	538.02	312.23	-1280.7	350.52	186.18	-1199.3	277.96	205.31	-1270.5	278.16	202.89	-1214.8	351.26	189.99	-1212.8	110.3	215.5	-1187.6	125.63	304.82	-1256.3	71.253	266.8	-1235.3	45.305	300.47	-1242.8	47.064	236.42	-1070.8	70.892	200.69	-1051.1	88.471	311.12	-993.72	116.27	260.82	-1506.5	1519.3	331.21	-1555.6	1236.6	339.87
7	0.025	NaN	NaN	NaN	-1408.8	1458	494.04	-1450.9	1483.6	160.29	-1407.4	1777.6	345.71	NaN	NaN	NaN	NaN	NaN	NaN	NaN	NaN	NaN	NaN	NaN	NaN	-1428.8	906.62	500.03	-1422.9	900.7	129.57	-1439.6	1080.4	474.27	-1441.7	1089.2	163.94	-1559.9	991.7	306.66	-1496.5	717.17	477.9	-1431.1	605.27	443.51	NaN	NaN	NaN	-1393	702.65	452.01	-1505.2	517.77	438.53	-1522.2	527.79	311	-1639.7	370.77	440.55	-1595.5	289.05	416.3	-1660.7	297.12	430.86	NaN	NaN	NaN	-1728.2	142.59	390.24	-1698.1	149.17	313.65	-1784.4	115.75	346.32	-1776.8	86.408	318.4	-1784.1	90.02	379.49	-1615.3	37.978	423.05	-1595.6	51.54	304.01	-1530.5	53.845	350.15	-1360.8	690.64	151.18	-1244.2	641.78	169.46	-1313	616.4	169.42	-1294.3	713.41	146.8	-1259.9	535.63	186.96	-1250.3	537.03	312.62	-1277	349.1	186.6	-1195.5	276.43	206.13	-1266.9	276.79	203.3	-1210.8	349.77	190.59	-1210	109.06	216.11	-1184.8	124.03	305.55	-1253.4	70.495	267.48	-1232.7	44.181	300.87	-1240.1	46.326	236.92	-1068	69.399	201.68	-1048.5	86.467	312.2	-990.93	114.4	262.1	-1501	1518.7	330.61	-1549.8	1235.9	339.39
8	0.029167	-1301.3	1215.6	306.08	-1403.3	1457.4	493.49	-1445.2	1482.9	159.66	-1402	1777.1	345.34	NaN	NaN	NaN	NaN	NaN	NaN	NaN	NaN	NaN	NaN	NaN	NaN	-1422.5	905.92	499.74	-1416.7	900.01	129.42	-1433.5	1079.8	473.99	-1435.6	1088.5	163.6	-1553.8	991.01	306.37	-1489.7	716.21	477.47	-1424	604.36	443.41	NaN	NaN	NaN	-1386.5	701.83	452.05	-1497.9	516.93	438.66	-1514.7	526.84	311.15	-1634	371.56	440.82	-1591	289.38	416.69	-1656	298.34	431.19	NaN	NaN	NaN	-1726.4	144.77	390.88	-1695.7	150.91	314.35	-1782.6	118.95	346.83	-1775.4	89.783	318.75	-1782.9	93.126	379.83	-1615.2	37.935	423.08	-1595.3	51.745	304.2	-1530.3	53.599	350.14	-1355.6	689.91	151.39	-1239.3	640.48	169.68	-1308.1	615.46	169.7	-1288.8	712.45	146.92	-1255.4	534.27	187.16	-1245.8	536	312.99	-1273.2	347.7	187	-1191.8	274.89	206.95	-1263.4	275.44	203.7	-1206.8	348.27	191.19	-1207.3	107.84	216.69	-1182.1	122.43	306.28	-1250.7	69.855	268.16	-1230.3	43.141	301.26	-1237.6	45.692	237.4	-1065.4	67.827	202.67	-1046.1	84.361	313.27	-988.29	112.36	263.4	-1495.4	1518.1	329.97	-1544	1235.2	338.87
9	0.033333	-1296.2	1215.3	305.66	-1397.8	1456.8	492.93	-1439.4	1482.3	159.02	-1396.6	1776.6	344.96	NaN	NaN	NaN	NaN	NaN	NaN	NaN	NaN	NaN	NaN	NaN	NaN	-1416.2	905.22	499.42	-1410.5	899.35	129.26	-1427.3	1079.2	473.7	-1429.4	1087.8	163.26	-1547.6	990.35	306.07	-1482.8	715.2	477.03	-1416.7	603.42	443.35	NaN	NaN	NaN	-1379.7	701.02	452.09	-1490.4	516.05	438.85	-1506.9	525.81	311.34	-1628	372.37	441.13	-1586.4	289.71	417.14	-1651.1	299.6	431.54	NaN	NaN	NaN	-1724.3	147.07	391.59	-1693	152.73	315.12	-1780.7	122.38	347.36	-1773.9	93.413	319.12	-1781.6	96.478	380.2	-1615.1	37.932	423.11	-1595.1	51.988	304.4	-1530.2	53.346	350.14	-1350.4	689.2	151.58	-1234.3	639.17	169.87	-1303.1	614.52	169.96	-1283.3	711.49	146.99	-1251	532.92	187.36	-1241.3	534.96	313.33	-1269.5	346.34	187.39	-1188.1	273.37	207.75	-1259.9	274.12	204.08	-1203	346.78	191.79	-1204.7	106.64	217.25	-1179.7	120.84	306.99	-1248.2	69.336	268.82	-1228.2	42.193	301.63	-1235.3	45.167	237.85	-1063	66.189	203.64	-1044	82.169	314.32	-985.84	110.16	264.68	-1489.8	1517.5	329.3	-1538.1	1234.6	338.33
10	0.0375	-1290.9	1215	305.24	-1392.4	1456.3	492.35	-1433.6	1481.7	158.35	-1391.2	1776.1	344.57	NaN	NaN	NaN	NaN	NaN	NaN	NaN	NaN	NaN	NaN	NaN	NaN	-1409.8	904.52	499.09	-1404.2	898.72	129.08	-1421.1	1078.7	473.4	-1423.2	1087.2	162.91	-1541.4	989.72	305.75	-1475.6	714.14	476.58	-1409.1	602.45	443.33	NaN	NaN	NaN	-1372.7	700.2	452.13	-1482.5	515.14	439.1	-1498.8	524.71	311.57	-1621.7	373.2	441.5	-1581.5	290.07	417.66	-1645.9	300.93	431.93	NaN	NaN	NaN	-1721.9	149.47	392.38	-1690	154.65	315.95	-1778.4	126.06	347.93	-1772.1	97.31	319.52	-1780.1	100.09	380.59	-1615	37.981	423.14	-1594.8	52.277	304.62	-1530.1	53.086	350.14	-1345.2	688.51	151.74	-1229.4	637.86	170.05	-1298.2	613.6	170.19	-1277.7	710.55	147.03	-1246.5	531.6	187.55	-1237	533.91	313.64	-1265.9	345.04	187.77	-1184.5	271.87	208.54	-1256.6	272.85	204.44	-1199.2	345.3	192.38	-1202.3	105.48	217.79	-1177.4	119.27	307.67	-1245.8	68.939	269.46	-1226.3	41.344	301.98	-1233.3	44.751	238.28	-1060.8	64.501	204.58	-1042	79.91	315.33	-983.57	107.84	265.94	-1484.1	1517	328.61	-1532.1	1233.9	337.76
11	0.041667	-1285.4	1214.8	304.8	-1386.9	1455.8	491.76	-1427.7	1481.2	157.68	-1385.7	1775.6	344.17	NaN	NaN	NaN	NaN	NaN	NaN	NaN	NaN	NaN	NaN	NaN	NaN	-1403.2	903.81	498.73	-1397.9	898.12	128.87	-1414.9	1078.1	473.11	-1416.9	1086.6	162.56	-1535.1	989.12	305.42	-1468.3	713.03	476.15	-1401.2	601.46	443.36	NaN	NaN	NaN	-1365.6	699.38	452.2	-1474.4	514.2	439.41	-1490.3	523.53	311.84	-1615	374.04	441.92	-1576.5	290.44	418.24	-1640.4	302.3	432.37	NaN	NaN	NaN	-1719.2	152	393.24	-1686.8	156.65	316.84	-1775.9	129.99	348.54	-1770	101.48	319.95	-1778.4	103.98	381	-1614.9	38.091	423.16	-1594.4	52.62	304.85	-1530	52.818	350.15	-1340	687.85	151.86	-1224.5	636.55	170.19	-1293.3	612.7	170.4	-1272.2	709.63	147.03	-1242.1	530.32	187.73	-1232.7	532.85	313.92	-1262.4	343.79	188.12	-1181.1	270.4	209.3	-1253.3	271.63	204.78	-1195.5	343.86	192.95	-1200.1	104.37	218.3	-1175.2	117.75	308.32	-1243.7	68.659	270.08	-1224.6	40.594	302.32	-1231.4	44.441	238.67	-1058.8	62.781	205.48	-1040.3	77.607	316.31	-981.47	105.41	267.16	-1478.5	1516.4	327.89	-1526.2	1233.3	337.16
